<?xml version="1.0" encoding="UTF-8"?>
<svg width="18px" height="17px" viewBox="0 0 18 17" version="1.1" xmlns="http://www.w3.org/2000/svg" xmlns:xlink="http://www.w3.org/1999/xlink">
    <!-- Generator: Sketch 59.1 (86144) - https://sketch.com -->
    <title>下载 (2)</title>
    <desc>Created with Sketch.</desc>
    <g id="资源申请" stroke="none" stroke-width="1" fill="none" fill-rule="evenodd">
        <g id="资源申请1" transform="translate(-639.000000, -157.000000)" fill="#1890FF" fill-rule="nonzero">
            <g id="编组-8" transform="translate(419.000000, 153.000000)">
                <g id="编组-6">
                    <g id="下载-(2)" transform="translate(220.000000, 4.000000)">
                        <path d="M8.26547085,10.4206278 C8.6529148,10.8 9.27443946,10.8 9.65381166,10.4206278 L13.2376682,6.8367713 C13.5605381,6.4896861 13.5605381,5.96502242 13.2376682,5.61793722 C12.890583,5.29506726 12.3659193,5.29506726 12.0188341,5.61793722 L9.86367713,7.74887892 L9.86367713,0.895964126 C9.86367713,0.403587444 9.46008969,0 8.967713,0 C8.47533632,0 8.07174888,0.403587444 8.07174888,0.895964126 L8.07174888,7.70852018 L5.7955157,5.42421525 C5.44035874,5.06098655 4.86726457,5.0529148 4.50403587,5.40807175 C4.14080717,5.7632287 4.13273543,6.33632287 4.48789238,6.69955157 L8.26547085,10.4206278 Z" id="路径"></path>
                        <path d="M17.0394619,9.86367713 C16.5470852,9.86367713 16.1434978,10.2672646 16.1434978,10.7596413 L16.1434978,13.4475336 C16.1434978,13.9399103 15.7399103,14.3434978 15.2475336,14.3434978 L2.68789238,14.3434978 C2.1955157,14.3434978 1.79192825,13.9399103 1.79192825,13.4475336 L1.79192825,10.7596413 C1.79192825,10.2672646 1.38834081,9.86367713 0.895964126,9.86367713 C0.403587444,9.86367713 0,10.2672646 0,10.7596413 L0,13.4475336 C0,14.9408072 1.20269058,16.1434978 2.68789238,16.1434978 L15.2475336,16.1434978 C16.7327354,16.1434978 17.935426,14.9408072 17.935426,13.4556054 L17.935426,10.767713 C17.935426,10.2672646 17.5318386,9.86367713 17.0394619,9.86367713 L17.0394619,9.86367713 Z" id="路径"></path>
                    </g>
                </g>
            </g>
        </g>
    </g>
</svg>