<svg xmlns="http://www.w3.org/2000/svg" viewBox="0 0 400 400"><defs><style>.cls-1{fill:none;}.cls-2{fill:#1890ff;}</style></defs><title>流程图</title><g id="图层_2" data-name="图层 2"><g id="图层_1-2" data-name="图层 1"><rect class="cls-1" width="400" height="400"/><path class="cls-2" d="M200,331.62l63.53-63.53c8.23-8.24,20-8.24,28.23,0s8.24,20,0,28.23L214.12,374c-8.24,8.24-20,8.24-28.24,0l-77.64-77.65c-8.24-8.23-8.24-20,0-28.23s20-8.24,28.23,0ZM169.41,237.5a29.42,29.42,0,1,1,29.41,29.41,29.12,29.12,0,0,1-29.41-29.41Zm0-94.12a29.42,29.42,0,1,1,29.41,29.41,29.12,29.12,0,0,1-29.41-29.41Zm0-94.12a29.42,29.42,0,0,1,58.83,0,29.42,29.42,0,1,1-58.83,0Z"/></g></g></svg>