<svg xmlns="http://www.w3.org/2000/svg" viewBox="0 0 600 600"><defs><style>.cls-1{fill:none;}.cls-2{fill:#e8e8e8;}.cls-3{fill:#e5e5e5;}.cls-4{fill:#c8cbce;}.cls-5{fill:#fff;}.cls-6{fill:#b7b7b7;}.cls-7{fill:#d8d8d8;}.cls-8{fill:#b5b5b5;}.cls-9{fill:#ccc;}</style></defs><title>登陆失败</title><g id="图层_2" data-name="图层 2"><g id="图层_1-2" data-name="图层 1"><rect class="cls-1" width="600" height="600"/><ellipse class="cls-2" cx="300" cy="368.66" rx="278.79" ry="92.85"/><polygon class="cls-3" points="324.83 229.93 314.05 262.36 309.77 221.89 460.39 112.61 324.83 229.93"/><polygon class="cls-4" points="314.05 262.36 324.83 229.93 460.39 112.61 314.05 262.36"/><polygon class="cls-5" points="402.02 271.11 324.83 229.93 460.39 112.61 309.77 221.89 236.7 182.9 482.13 94.69 402.02 271.11"/><path class="cls-6" d="M202.75,375.07A96.64,96.64,0,0,1,178.22,372a1,1,0,1,1,.56-1.92c.34.1,33.95,9.78,58.52-5.88a83.43,83.43,0,0,0,22.14-20.79A30.59,30.59,0,0,1,246.87,342c-4.7-1.62-7.78-4.38-8.43-7.57-.9-4.34,1.51-9.38,6.42-13.49,4.53-3.79,12.13-7.28,18.68-4.66,2.92,1.17,4.65,3.75,5,7.46.42,4.53-1.26,10.53-5,16.95a33,33,0,0,0,14.17-7.07c9.74-8.28,11-17.59,12.55-28.38,1.4-10,3-21.31,11.85-33.59a1,1,0,0,1,1.39-.23,1,1,0,0,1,.23,1.4c-8.57,11.88-10.12,22.94-11.49,32.69-1.5,10.73-2.91,20.86-13.24,29.64A35.13,35.13,0,0,1,262.13,343a78.71,78.71,0,0,1-23.76,22.82C227,373.06,213.87,375.07,202.75,375.07ZM258.7,317.4c-4.44,0-9.2,2.27-12.55,5.08-4.28,3.58-6.49,8-5.75,11.56.51,2.48,3.1,4.7,7.12,6.08a29.12,29.12,0,0,0,13.4,1.06c3.87-6,6.11-12,5.62-17.24-.19-2-1-4.69-3.75-5.79A10.87,10.87,0,0,0,258.7,317.4Z"/><path class="cls-6" d="M169.5,369.66a.83.83,0,0,1-.22,0,43.93,43.93,0,0,0-5.8-.92,1,1,0,0,1,.18-2,46.21,46.21,0,0,1,6.06,1,1,1,0,0,1-.22,2Z"/><path class="cls-6" d="M148.58,370.29a1,1,0,0,1-.3-2,38.21,38.21,0,0,1,7.62-1.57,1,1,0,0,1,1.09.89,1,1,0,0,1-.89,1.1,36.47,36.47,0,0,0-7.22,1.49A1,1,0,0,1,148.58,370.29Z"/><path class="cls-6" d="M136.5,376.41a1,1,0,0,1-.58-1.82,50.56,50.56,0,0,1,5.2-3.23,1,1,0,1,1,.94,1.76,46.45,46.45,0,0,0-5,3.1A1,1,0,0,1,136.5,376.41Z"/><path class="cls-7" d="M478.84,286.86h.09c22-4,35.17-29,39.14-74.23a.49.49,0,0,0-.45-.54.5.5,0,0,0-.54.45c-3.93,44.78-16.83,69.45-38.32,73.34a.5.5,0,0,0-.41.58A.51.51,0,0,0,478.84,286.86Z"/><path class="cls-7" d="M510.27,284a.52.52,0,0,0,.33-.12c20.08-17.08,23.5-47.79,24.07-56.79a.5.5,0,0,0-.47-.54.52.52,0,0,0-.53.47c-.56,8.91-3.93,39.27-23.72,56.1a.51.51,0,0,0-.06.71A.52.52,0,0,0,510.27,284Z"/><path class="cls-8" d="M490.6,294.78c-13.61-9.55-25.44,9.17-16.54,23.55C490.5,311.51,505.12,294.43,490.6,294.78Z"/><path class="cls-5" d="M475.93,315h0a.27.27,0,0,0,.32-.2c1.75-7.19,6.15-13.46,13.09-18.62a.27.27,0,0,0-.32-.43c-7,5.25-11.5,11.61-13.28,18.93A.25.25,0,0,0,475.93,315Z"/><path class="cls-5" d="M473.59,308.45a.34.34,0,0,0,.14,0c1.66-.32,3.5-.56,4.57,0a.27.27,0,0,0,.36-.11.25.25,0,0,0-.11-.35c-1.21-.65-3.17-.4-4.92-.07a.26.26,0,0,0,0,.5Z"/><path class="cls-5" d="M484.86,308.39a.31.31,0,0,0,.19,0,.27.27,0,0,0,.14-.35,6.6,6.6,0,0,0-4.32-3.92.29.29,0,0,0-.34.17.27.27,0,0,0,.17.34,6,6,0,0,1,4,3.61A.26.26,0,0,0,484.86,308.39Z"/><path class="cls-5" d="M473.56,304.73a.17.17,0,0,0,.12,0c1.53-.22,4.35-.37,6.08,1.1a.27.27,0,0,0,.37,0,.26.26,0,0,0,0-.37c-1.88-1.61-4.88-1.45-6.49-1.22a.25.25,0,0,0-.22.3A.25.25,0,0,0,473.56,304.73Z"/><path class="cls-5" d="M482.27,302.59a.29.29,0,0,0,.29-.08.26.26,0,0,0,0-.37A11.82,11.82,0,0,0,475,299.5a.28.28,0,0,0-.26.27.27.27,0,0,0,.27.26,11.21,11.21,0,0,1,7.21,2.51Z"/><path class="cls-5" d="M484.61,300.05a.27.27,0,0,0,.27-.05.27.27,0,0,0,0-.38c-2.05-2.2-4.74-3.79-6.86-4.05a.25.25,0,0,0-.29.23.25.25,0,0,0,.22.29,12.09,12.09,0,0,1,6.55,3.89A.17.17,0,0,0,484.61,300.05Z"/><path class="cls-5" d="M486.94,297.93a.25.25,0,0,0,.22,0,.25.25,0,0,0,.09-.36,7.78,7.78,0,0,0-4-3.14.27.27,0,0,0-.35.13.26.26,0,0,0,.14.35,7.21,7.21,0,0,1,3.73,2.94A.3.3,0,0,0,486.94,297.93Z"/><path class="cls-5" d="M481.38,311.17a.25.25,0,0,0,.17,0,.25.25,0,0,0,.17-.33,5.92,5.92,0,0,0-2.79-3.53.26.26,0,0,0-.36.1.27.27,0,0,0,.1.36,5.4,5.4,0,0,1,2.55,3.23A.25.25,0,0,0,481.38,311.17Z"/><path class="cls-5" d="M488.64,305.15a.26.26,0,0,0,.24,0,.27.27,0,0,0,.06-.37c-1.67-2.29-2.77-3.36-5.22-4.11a.27.27,0,0,0-.33.17.26.26,0,0,0,.18.33c2.3.71,3.35,1.73,4.94,3.92A.22.22,0,0,0,488.64,305.15Z"/><path class="cls-5" d="M491.75,301A.27.27,0,0,0,492,301a.27.27,0,0,0,0-.37,8.22,8.22,0,0,0-6.14-2.17.26.26,0,0,0-.26.26.27.27,0,0,0,.27.27,7.66,7.66,0,0,1,5.76,2A.21.21,0,0,0,491.75,301Z"/><path class="cls-7" d="M535.45,275.38c-10.51-.65-10.7,13.38-1.13,18.2C540.94,284.45,543.18,270.38,535.45,275.38Z"/><path class="cls-5" d="M534.22,291.15h0a.17.17,0,0,0,.11-.21c-1.44-4.47-1.13-9.31.9-14.4a.18.18,0,0,0-.09-.22.17.17,0,0,0-.22.1c-2.06,5.16-2.37,10.08-.91,14.62A.17.17,0,0,0,534.22,291.15Z"/><path class="cls-5" d="M530.8,288.4l.07,0a5.11,5.11,0,0,1,2.48-1.51.15.15,0,0,0,.15-.17.15.15,0,0,0-.17-.16,5.22,5.22,0,0,0-2.68,1.59.16.16,0,0,0,0,.24A.18.18,0,0,0,530.8,288.4Z"/><path class="cls-5" d="M536.86,284.63a.21.21,0,0,0,.1-.06.17.17,0,0,0,0-.24,4.17,4.17,0,0,0-3.63-.68.16.16,0,0,0-.12.2.17.17,0,0,0,.2.13,3.82,3.82,0,0,1,3.36.62A.15.15,0,0,0,536.86,284.63Z"/><path class="cls-5" d="M533.54,282.35a.15.15,0,0,0,.13-.13.16.16,0,0,0-.14-.19,7.46,7.46,0,0,0-5,1.08.17.17,0,0,0-.05.23.17.17,0,0,0,.23.05,7.09,7.09,0,0,1,4.73-1Z"/><path class="cls-5" d="M534.52,278.29a.16.16,0,0,0,.11-.09.16.16,0,0,0-.07-.22,5,5,0,0,0-3.19-.38.17.17,0,0,0,0,.33,4.6,4.6,0,0,1,3,.35A.14.14,0,0,0,534.52,278.29Z"/><path class="cls-5" d="M538.14,278.37a.18.18,0,0,0,.13-.12.17.17,0,0,0-.13-.2,5.18,5.18,0,0,0-4,.86.18.18,0,0,0-.06.23.17.17,0,0,0,.23.05,4.87,4.87,0,0,1,3.78-.82Z"/><path class="cls-7" d="M145.36,269.53a.51.51,0,0,0,.32-.12c20.09-17.09,23.5-47.8,24.07-56.8a.49.49,0,0,0-.46-.53.49.49,0,0,0-.53.46c-.57,8.91-3.94,39.27-23.73,56.11a.5.5,0,0,0,.33.88Z"/><path class="cls-7" d="M170.53,260.88c-10.51-.65-10.7,13.38-1.13,18.2C176,270,178.26,255.88,170.53,260.88Z"/><path class="cls-5" d="M169.3,276.65h0a.16.16,0,0,0,.11-.21c-1.44-4.47-1.13-9.31.9-14.4a.17.17,0,0,0-.09-.21.16.16,0,0,0-.22.09c-2.06,5.16-2.37,10.08-.91,14.62A.17.17,0,0,0,169.3,276.65Z"/><path class="cls-5" d="M165.88,273.9a.13.13,0,0,0,.07,0,5,5,0,0,1,2.48-1.5.17.17,0,0,0,0-.34,5.35,5.35,0,0,0-2.68,1.6.16.16,0,0,0,.15.28Z"/><path class="cls-5" d="M171.94,270.13a.15.15,0,0,0,.1-.06.17.17,0,0,0,0-.23,4.2,4.2,0,0,0-3.64-.69.18.18,0,0,0-.12.21.16.16,0,0,0,.2.12,3.81,3.81,0,0,1,3.36.62A.16.16,0,0,0,171.94,270.13Z"/><path class="cls-5" d="M168.62,267.86a.17.17,0,0,0,0-.33,7.42,7.42,0,0,0-5,1.08.17.17,0,1,0,.18.28,7.11,7.11,0,0,1,4.72-1Z"/><path class="cls-5" d="M169.6,263.79a.15.15,0,0,0,.11-.08.17.17,0,0,0-.07-.23,5,5,0,0,0-3.19-.38.18.18,0,0,0-.14.19.16.16,0,0,0,.18.14,4.6,4.6,0,0,1,3,.35A.14.14,0,0,0,169.6,263.79Z"/><path class="cls-5" d="M173.22,263.87a.18.18,0,0,0,.13-.12.17.17,0,0,0-.13-.2,5.18,5.18,0,0,0-4,.86.16.16,0,0,0-.05.23.16.16,0,0,0,.23.05,4.9,4.9,0,0,1,3.78-.82Z"/><path class="cls-9" d="M59.78,513.87A18,18,0,0,0,62.84,510H54.67v-3.46H67.09v2.81A20,20,0,0,1,63.74,515h8.93a29.36,29.36,0,0,1-5.15-7.74l3.13-1.73a23.79,23.79,0,0,0,2.06,3.78A19.85,19.85,0,0,0,76,506l2.62,2.34a21.78,21.78,0,0,1-3.85,3.6,16.76,16.76,0,0,0,2,2,20.34,20.34,0,0,0,3.85-3.85l2.62,2.31a22.15,22.15,0,0,1-3.81,3.74,37,37,0,0,0,5.25,3.2l-2.48,2.88A39.49,39.49,0,0,1,74.76,517v1.34H61.55v-1.16A30.87,30.87,0,0,1,53,522.33l-2.31-3A29.91,29.91,0,0,0,57.16,516a42.39,42.39,0,0,0-4.25-3.35l2.52-2.38A48.19,48.19,0,0,1,59.78,513.87Zm4.43,20.44H71A30.76,30.76,0,0,0,73.64,530l3.49,1.26a29.54,29.54,0,0,1-2,3h7.85v3.57H51.76v-3.57h8.46a19.71,19.71,0,0,0-2.67-2.84l3.53-1.33A21.84,21.84,0,0,1,64.21,534.31Zm13.64-13.75v9.36H57.05v-9.36Zm-3.78,3.28H60.83v2.77H74.07Z"/><path class="cls-9" d="M98.66,506.7v2.88q-1.39,4.59-3.24,9.65a21,21,0,0,1,3.17,8.67,6,6,0,0,1-.93,3.75c-1,.93-2.7,1.4-5.08,1.44l-1.15-3.71a15.11,15.11,0,0,0,1.94.18,2.15,2.15,0,0,0,1.23-.43,2.06,2.06,0,0,0,.28-1.23c0-2.41-1.08-5.11-3.16-8.09,1.36-3.57,2.44-6.77,3.24-9.65H91.39v28.72h-3.6V506.7Zm8.57,4V506H111v4.71h7.46v3.49H111v4.65h8.9v3.53H111v11.48h4V525h3.53v13.79h-3.53v-1.4h-11.7v1.36H99.71V525h3.52v8.86h4V522.33H98.92V518.8h8.31v-4.65H100v-3.49Z"/><path class="cls-9" d="M133.26,507.68c-.5,1.36-1,2.62-1.51,3.81h5.76v-6h3.81v6H153v3.67H141.32v1.48a40.57,40.57,0,0,1-.43,4.43h14.4v3.63H142.62q2.53,6.85,13.14,10.8l-2.09,3.35q-10.9-4.86-14-12.78a21.94,21.94,0,0,1-2.56,5c-2.48,3.39-6.51,5.94-12.13,7.74l-2-3.2c5.61-1.87,9.39-4.25,11.34-7.09a20.73,20.73,0,0,0,1.83-3.82H123.5v-3.63H137a32.4,32.4,0,0,0,.51-4.43v-1.48h-7.67a24.41,24.41,0,0,1-3.92,5l-3.21-2.81a24.69,24.69,0,0,0,7-11.09Z"/><path class="cls-9" d="M168.65,512.21v11.2a25,25,0,0,1-2,10.07,12,12,0,0,1-5.8,5.44l-2.05-3.2a10.53,10.53,0,0,0,5.11-4.61,21.51,21.51,0,0,0,1.44-7.7v-11.2Zm7.56,10.47L174.08,520v9.71H170.7V510.09h-7.42V529.7h-3.45V506.63h14.25V519.7q3.73-5.09,4.72-14.26l3.74.47c-.29,1.73-.57,3.31-.9,4.82h9.83v3.64h-1.91a34.62,34.62,0,0,1-3.67,15.23,27.23,27.23,0,0,0,6.3,5.83L190.14,539a26,26,0,0,1-6.37-6,26.18,26.18,0,0,1-6.41,5.94l-2.09-3.35a20.28,20.28,0,0,0,6.34-5.87,34,34,0,0,1-3.57-9.46A15.07,15.07,0,0,1,176.21,522.68ZM175,536.11l-2.74,2.74a34.34,34.34,0,0,0-4.68-6.05l2.49-2.38A46.22,46.22,0,0,1,175,536.11Zm11.12-21.74h-5.44c-.1.29-.21.61-.28.9a28.76,28.76,0,0,0,3.27,10.83A32.92,32.92,0,0,0,186.07,514.37Z"/><path class="cls-9" d="M202.81,530.82a5,5,0,0,1,.94,3.1,8.13,8.13,0,0,1-1.66,5,8.66,8.66,0,0,1-4.5,2.92v-2.38a6.07,6.07,0,0,0,2.49-1.73,4.18,4.18,0,0,0,.93-2.55,2.77,2.77,0,0,1-.9.14,2.7,2.7,0,0,1-2-.83,2.73,2.73,0,0,1-.79-2,2.62,2.62,0,0,1,.86-2.06,2.91,2.91,0,0,1,2.16-.79A3.05,3.05,0,0,1,202.81,530.82Z"/><path class="cls-9" d="M239.1,516.13v14.69c.86-.83,1.73-1.73,2.63-2.66l1,4a56.09,56.09,0,0,1-6.81,5.72l-1.4-3.38a2.63,2.63,0,0,0,.93-2V519.73h-4.78v-3.6Zm2.52-5.14L239,513.58a32.7,32.7,0,0,0-5.91-5.26l2.67-2.55A47.06,47.06,0,0,1,241.62,511Zm12.92-5.47v2h8.53v3h-8.53V512h7.27v3h-7.27v1.55h9.4v3.1H241.62v-3.1h9.29V515h-6.77v-3h6.77v-1.51h-8.28v-3h8.28v-2Zm-6.91,33.29H244.1V521.07h17.43v14c0,2.31-1.19,3.5-3.53,3.5h-3l-.9-3.28,2.84.14c.65,0,1-.39,1-1.15v-1h-10.3Zm10.3-14.72h-10.3v1.8h10.3Zm-10.3,6.37h10.3V528.7h-10.3Z"/><path class="cls-9" d="M281.51,506.63v3.46H279.6v18.46c.68-.21,1.33-.43,2-.65v3.64c-.65.22-1.33.4-2,.58v6.73H276v-5.73c-2.7.65-5.47,1.26-8.35,1.84l-.9-3.56,2-.29v-21h-1.8v-3.46Zm-5.55,7.7v-4.24h-3.7v4.24Zm0,7.49v-4.1h-3.7v4.1Zm0,7.78v-4.39h-3.7v5.25ZM286.26,513a47.15,47.15,0,0,0-3.13-5.47l2.88-1.84a46,46,0,0,1,3.09,5.51l-2.55,1.8h4.17a46.91,46.91,0,0,0,3.24-7.45l3.49,1.33a50.67,50.67,0,0,1-3,6.12H299v3.52h-6.95V517c0,1.62-.07,3.17-.21,4.61h7.81v3.6h-6.84c1,3.6,3.46,7.23,7.42,10.91l-2.6,2.8a29,29,0,0,1-7-10.9,19.16,19.16,0,0,1-7.81,11.08L280.54,536c3.63-2.23,6-5.86,7.12-10.83h-6.44v-3.6h7a30.43,30.43,0,0,0,.22-3.74v-1.34H281.8V513Z"/><path class="cls-9" d="M314.48,530.32a34.82,34.82,0,0,1-9,7.63l-2.34-3.06a35.38,35.38,0,0,0,8.72-6.91Zm-.43,8.38-.86-3.67a31.15,31.15,0,0,0,3.67.25c.68,0,1-.39,1-1.15V526.5c-3.38.22-7,.43-11,.61l-1-3.27a12.64,12.64,0,0,0,3.24-.69,45.09,45.09,0,0,0,8.28-4.89c-2.81.21-5.8.39-8.89.57l-.76-3.27a8.47,8.47,0,0,0,2.52-.69,17.19,17.19,0,0,0,4.68-4c-2.81.07-5.69.15-8.71.15l-1.08-3.24a146.84,146.84,0,0,0,26.24-2l1.84,3.13a104.11,104.11,0,0,1-13.64,1.73,31.37,31.37,0,0,1-5.48,5.11c2.38-.14,4.79-.32,7.17-.5,1.47-1.23,3-2.56,4.57-4l3.45,1.69a102.36,102.36,0,0,1-14.54,10.77c4.68-.33,8.82-.69,12.35-1.12-.76-1-1.55-2-2.34-3l2.77-1.73a72,72,0,0,1,6.88,9.18l-3,2c-.65-1.15-1.41-2.3-2.2-3.49-2.3.25-4.82.47-7.56.68v8.86c0,2.41-1.18,3.63-3.52,3.63Zm21.38-3.27-2.66,2.66a52.92,52.92,0,0,0-8.75-8l2.49-2.42A66.54,66.54,0,0,1,335.43,535.43Z"/><path class="cls-9" d="M356.57,538.16a26.22,26.22,0,0,1-5.69-.61,7.76,7.76,0,0,1-3.71-2.48c-.47-.61-.9-.9-1.33-.9-.68,0-1.91,1.62-3.71,4.86l-2.77-2.59c1.8-2.88,3.38-4.72,4.82-5.51v-9.86h-4.75v-3.46h8.25v13.71l.36.36a9.38,9.38,0,0,0,2.44,2.13,11.42,11.42,0,0,0,4.68.9c2,0,4.47.07,7.2.07,1.8,0,3.6,0,5.47,0s3.24-.14,4.25-.21l-.94,3.71H362.9C361,538.24,358.83,538.2,356.57,538.16Zm-8.1-26.74-2.7,2.66a37.52,37.52,0,0,0-6-5.83l2.63-2.48A46.47,46.47,0,0,1,348.47,511.42Zm23.14,3.85v3.56h-11a49.56,49.56,0,0,1-4.75,9.4,86.37,86.37,0,0,0,9.64-1.76c-.72-1.7-1.51-3.32-2.34-4.86l3.06-1a65.06,65.06,0,0,1,5,11.3l-3.35.83c-.36-1.08-.68-2.09-1-3.06a106.22,106.22,0,0,1-15.15,2.48l-.94-3.27c1.44-.44,3.49-3.78,6.15-10h-7.16v-3.56Zm-2.62-8.1v3.46H352v-3.46Z"/><path class="cls-9" d="M383.93,506.74A60.48,60.48,0,0,1,379.25,517l3-.43c.58-1.3,1.23-2.66,1.87-4.14l3.28,1.26a96.14,96.14,0,0,1-6.62,12.24,42.73,42.73,0,0,0,6-2.16v3.45a45.74,45.74,0,0,1-10.37,3l-1-3.39a5.69,5.69,0,0,0,1.69-1.08,30.94,30.94,0,0,0,3.5-5.79c-1.55.22-3.17.47-4.83.72l-.9-3.42a3.88,3.88,0,0,0,1.55-1.37,75.37,75.37,0,0,0,3.89-10.58Zm3.63,27.75a73.6,73.6,0,0,1-12.05,3.21L375,534a68.17,68.17,0,0,0,12.56-3.06Zm5.76,4.25h-3.6V519c-.82,1.3-1.69,2.52-2.59,3.71L386,518.91a39.7,39.7,0,0,0,5.62-13.29l3.56.72a49.74,49.74,0,0,1-1.55,4.93h5.15a47.34,47.34,0,0,0-1.87-4.89l3.63-1c.76,2.12,1.37,4.06,1.84,5.86h5v3.53h-5.19v3.78h4.58V522h-4.58v3.67h4.58v3.42h-4.58v4.28h5.91v3.49h-14.8Zm0-23.94v3.78h5.29V514.8Zm0,10.91h5.29V522h-5.29Zm0,7.7h5.29v-4.28h-5.29Z"/><path class="cls-9" d="M428.89,513.65a32.75,32.75,0,0,0,15.41,21.71l-2.52,3.31a36.54,36.54,0,0,1-14.26-18.18q-3.56,11-14.79,18.25l-2.3-3.38c9.64-5.76,14.57-13.83,14.86-24.16,0-2.41,0-4.28,0-5.65h3.81C429.14,508.72,429,511.42,428.89,513.65Z"/><path class="cls-9" d="M465.61,523.8c-.5,5.47-1.62,9.07-3.35,10.84-1.8,2.23-6.19,3.7-13.24,4.35l-1.48-3.42q8.64-.44,11.45-3.13c1.62-1.73,2.55-4.75,2.81-9Zm10.3,8.24h-3.75V521.75H454.63v10.87h-3.74V518.33h25Zm-2.13-25.55v9.82H453v-9.82Zm-3.63,3.31h-13.5v3.27h13.5Zm9,26.1-2,3.13a68.23,68.23,0,0,0-12.63-4.75l1.87-2.78A85,85,0,0,1,479.11,535.9Z"/><path class="cls-9" d="M485.2,539.1l-2.52-2.3a21.82,21.82,0,0,0,1.94-9.58v-11l-1.8-2.16a26.81,26.81,0,0,0,5.11-8.71l3.42.79c-.21.58-.47,1.15-.68,1.73h6v2.56a30.42,30.42,0,0,1-1.9,3.31h3.67v21.85c0,1.94-1.08,2.91-3.17,2.91h-1.62l-.65-2.3v1.94h-3V530.5h-2.41A23.3,23.3,0,0,1,485.2,539.1ZM492.65,511h-3.46c-.54,1-1.11,1.94-1.69,2.81h3.42A32.93,32.93,0,0,0,492.65,511Zm-4.86,6v3.53H490V517Zm0,10.4H490v-3.77h-2.23Zm7.45-10.4H493v3.53h2.27Zm0,6.63H493v3.77h2.27Zm-1,12c.65,0,1-.36,1-1.08v-4H493v5A8.05,8.05,0,0,0,494.23,535.61Zm6.73-7.24-2.16-2.66a12.61,12.61,0,0,0,3.06-6.44l3.06.54c-.18.86-.36,1.62-.57,2.33h2.37v-3h3.67v3h4.79v3.35h-4.79v3.35h5.55v3.42h-5.55v6.66h-3.67v-6.66h-7.63v-3.42h7.63v-3.35H503A12.91,12.91,0,0,1,501,528.37Zm-1.65-17.74v-3.32H515c0,5.19-.39,8.32-1.11,9.36a4.15,4.15,0,0,1-3.64,1.55c-.86,0-1.87-.07-3.06-.18l-.86-3.09,3.13.25c.83,0,1.37-.29,1.58-.76a16.94,16.94,0,0,0,.36-3.81h-4.28a17.26,17.26,0,0,1-1.51,4.06,14.47,14.47,0,0,1-4.25,4.22l-2.23-2.81a8.84,8.84,0,0,0,3.38-2.92,9.78,9.78,0,0,0,1.12-2.55Z"/><path class="cls-9" d="M527.71,522.79a149.64,149.64,0,0,1-5.25,15.09l-3.57-1.55a135.37,135.37,0,0,0,5.51-14.83Zm-.39-7.92-3.1,2.16a67.62,67.62,0,0,0-5.18-8.67l3.09-1.94A66.23,66.23,0,0,1,527.32,514.87Zm9.64-4.28v-5.07h3.64v5.07h8.1v10.48h2.95v3.56h-9.9a26.38,26.38,0,0,0,10.44,11.19l-2.48,2.88a31.38,31.38,0,0,1-10.62-12.56,21.32,21.32,0,0,1-10.51,12.67l-2.42-3.17a17.59,17.59,0,0,0,9.62-11h-7.17v-3.56h8a33.07,33.07,0,0,0,.36-4.76v-2.16h-6.84v-3.56Zm3.64,4.9a44.23,44.23,0,0,1-.36,5.58h4.82v-6.92H540.6Z"/></g></g></svg>