<svg xmlns="http://www.w3.org/2000/svg" xmlns:xlink="http://www.w3.org/1999/xlink" viewBox="0 0 180 140.32"><defs><style>.cls-1{fill:url(#未命名的渐变_18);}</style><linearGradient id="未命名的渐变_18" x1="166.29" y1="117.3" x2="19.54" y2="13.08" gradientUnits="userSpaceOnUse"><stop offset="0" stop-color="#1268eb"/><stop offset="1" stop-color="#19a3fc"/></linearGradient></defs><title>资源 1</title><g id="图层_2" data-name="图层 2"><g id="图层_1-2" data-name="图层 1"><path class="cls-1" d="M59,138.84s28.28-.57,51.71-9.76c27.84-10.91,51.1-32,50.1-58.46C160.1,51.17,143,35.34,111,34.68,75.25,33.94,57.09,48.74,51.62,55.3S50,74.24,78,63.81s60.37-15.93,65,4.26c4.83,21.05-28.2,42.4-51,48.46C71.3,122.05,16.26,126.88,3.16,92s17-66.56,44.89-80.87c35.53-18.26,86.2-14.3,125.73,13.1,0,0-51.24-20.75-87.78-14.71S27.45,33,18.75,53.41c-8.24,19.32-1.85,51.91,33.05,52S112.68,92,110.36,81.92C107.8,70.8,93.06,73.6,73.51,80.5,53.33,87.63,27.36,92.93,26.27,69.42c-1.06-23,25.61-40,55.33-47.63s82.77.76,94.83,32.42c10.33,27.12-2.25,54.74-31.22,72.72C113.67,146.51,59,138.84,59,138.84Z"/></g></g></svg>